REM DIRINDEX 1\2\4,1\2\5,1\2\6,1\3\7,1\3\8
REM DIRNAME cjc128,folder01,folder02,folder03,folder04,folder05,folder06,folder07
TITLE ""
FILE "031_Lesson 26_Output_Stage.mp3" MP3
  TRACK 01 AUDIO
    TITLE "0:"
    INDEX 01 00:00:00
  TRACK 02 AUDIO
    TITLE "8:cjc128_3685"
    INDEX 01 00:00:07
  TRACK 03 AUDIO
    TITLE "0:"
    INDEX 01 00:03:37
  TRACK 04 AUDIO
    TITLE "8:cjc128_3686"
    INDEX 01 00:04:27
  TRACK 05 AUDIO
    TITLE "0:"
    INDEX 01 00:06:31
  TRACK 06 AUDIO
    TITLE "7:cjc128_3687"
    INDEX 01 00:07:03
  TRACK 07 AUDIO
    TITLE "0:"
    INDEX 01 00:09:28
  TRACK 08 AUDIO
    TITLE "8:cjc128_3688"
    INDEX 01 00:12:01
  TRACK 09 AUDIO
    TITLE "0:"
    INDEX 01 00:13:67
  TRACK 10 AUDIO
    TITLE "7:cjc128_3689"
    INDEX 01 00:14:47
  TRACK 11 AUDIO
    TITLE "0:"
    INDEX 01 00:18:25
  TRACK 12 AUDIO
    TITLE "8:cjc128_3690"
    INDEX 01 00:22:38
  TRACK 13 AUDIO
    TITLE "0:"
    INDEX 01 00:24:31
  TRACK 14 AUDIO
    TITLE "7:cjc128_3691"
    INDEX 01 00:25:09
  TRACK 15 AUDIO
    TITLE "0:"
    INDEX 01 00:28:64
  TRACK 16 AUDIO
    TITLE "8:cjc128_3692"
    INDEX 01 00:32:72
  TRACK 17 AUDIO
    TITLE "0:"
    INDEX 01 00:34:49
  TRACK 18 AUDIO
    TITLE "7:cjc128_3693"
    INDEX 01 00:35:23
  TRACK 19 AUDIO
    TITLE "0:"
    INDEX 01 00:38:43
  TRACK 20 AUDIO
    TITLE "8:cjc128_3694"
    INDEX 01 00:42:49
  TRACK 21 AUDIO
    TITLE "0:"
    INDEX 01 00:44:46
  TRACK 22 AUDIO
    TITLE "7:cjc128_3695"
    INDEX 01 00:45:30
  TRACK 23 AUDIO
    TITLE "0:"
    INDEX 01 00:48:46
  TRACK 24 AUDIO
    TITLE "8:cjc128_3696"
    INDEX 01 00:52:08
  TRACK 25 AUDIO
    TITLE "0:"
    INDEX 01 00:54:11
  TRACK 26 AUDIO
    TITLE "7:cjc128_3697"
    INDEX 01 00:54:66
  TRACK 27 AUDIO
    TITLE "0:"
    INDEX 01 00:58:28
  TRACK 28 AUDIO
    TITLE "8:cjc128_3698"
    INDEX 01 01:02:24
  TRACK 29 AUDIO
    TITLE "0:"
    INDEX 01 01:04:29
  TRACK 30 AUDIO
    TITLE "7:cjc128_3699"
    INDEX 01 01:05:09
  TRACK 31 AUDIO
    TITLE "0:"
    INDEX 01 01:08:31
  TRACK 32 AUDIO
    TITLE "8:cjc128_3700"
    INDEX 01 01:11:70
  TRACK 33 AUDIO
    TITLE "0:"
    INDEX 01 01:13:65
  TRACK 34 AUDIO
    TITLE "7:cjc128_3701"
    INDEX 01 01:14:43
  TRACK 35 AUDIO
    TITLE "0:"
    INDEX 01 01:16:73
  TRACK 36 AUDIO
    TITLE "8:cjc128_3702"
    INDEX 01 01:20:10
  TRACK 37 AUDIO
    TITLE "0:"
    INDEX 01 01:22:19
  TRACK 38 AUDIO
    TITLE "7:cjc128_3703"
    INDEX 01 01:23:07
  TRACK 39 AUDIO
    TITLE "0:"
    INDEX 01 01:25:64
  TRACK 40 AUDIO
    TITLE "8:cjc128_3704"
    INDEX 01 01:29:15
  TRACK 41 AUDIO
    TITLE "0:"
    INDEX 01 01:31:22
  TRACK 42 AUDIO
    TITLE "7:cjc128_3705"
    INDEX 01 01:32:19
  TRACK 43 AUDIO
    TITLE "0:"
    INDEX 01 01:35:29
  TRACK 44 AUDIO
    TITLE "8:cjc128_3706"
    INDEX 01 01:39:00
  TRACK 45 AUDIO
    TITLE "0:"
    INDEX 01 01:41:14
  TRACK 46 AUDIO
    TITLE "7:cjc128_3707"
    INDEX 01 01:41:69
  TRACK 47 AUDIO
    TITLE "0:"
    INDEX 01 01:45:04
  TRACK 48 AUDIO
    TITLE "8:cjc128_3708"
    INDEX 01 01:48:60
  TRACK 49 AUDIO
    TITLE "0:"
    INDEX 01 01:50:54
  TRACK 50 AUDIO
    TITLE "7:cjc128_3709"
    INDEX 01 01:51:34
  TRACK 51 AUDIO
    TITLE "0:"
    INDEX 01 01:54:31
  TRACK 52 AUDIO
    TITLE "8:cjc128_3710"
    INDEX 01 01:57:57
  TRACK 53 AUDIO
    TITLE "0:"
    INDEX 01 01:59:55
  TRACK 54 AUDIO
    TITLE "7:cjc128_3711"
    INDEX 01 02:00:33
  TRACK 55 AUDIO
    TITLE "0:"
    INDEX 01 02:03:49
  TRACK 56 AUDIO
    TITLE "8:cjc128_3712"
    INDEX 01 02:07:33
  TRACK 57 AUDIO
    TITLE "0:"
    INDEX 01 02:09:11
  TRACK 58 AUDIO
    TITLE "7:cjc128_3713"
    INDEX 01 02:09:69
  TRACK 59 AUDIO
    TITLE "0:"
    INDEX 01 02:12:44
  TRACK 60 AUDIO
    TITLE "8:cjc128_3714"
    INDEX 01 02:15:51
  TRACK 61 AUDIO
    TITLE "0:"
    INDEX 01 02:17:44
  TRACK 62 AUDIO
    TITLE "7:cjc128_3715"
    INDEX 01 02:18:23
  TRACK 63 AUDIO
    TITLE "0:"
    INDEX 01 02:22:07
  TRACK 64 AUDIO
    TITLE "8:cjc128_3716"
    INDEX 01 02:26:29
  TRACK 65 AUDIO
    TITLE "0:"
    INDEX 01 02:28:22
  TRACK 66 AUDIO
    TITLE "7:cjc128_3717"
    INDEX 01 02:29:04
  TRACK 67 AUDIO
    TITLE "0:"
    INDEX 01 02:31:16
  TRACK 68 AUDIO
    TITLE "8:cjc128_3718"
    INDEX 01 02:33:60
  TRACK 69 AUDIO
    TITLE "0:"
    INDEX 01 02:35:55
  TRACK 70 AUDIO
    TITLE "7:cjc128_3719"
    INDEX 01 02:36:37
  TRACK 71 AUDIO
    TITLE "0:"
    INDEX 01 02:40:01
  TRACK 72 AUDIO
    TITLE "8:cjc128_3720"
    INDEX 01 02:44:09
  TRACK 73 AUDIO
    TITLE "0:"
    INDEX 01 02:46:08
  TRACK 74 AUDIO
    TITLE "7:cjc128_3721"
    INDEX 01 02:46:63
  TRACK 75 AUDIO
    TITLE "0:"
    INDEX 01 02:49:34
  TRACK 76 AUDIO
    TITLE "8:cjc128_3722"
    INDEX 01 02:52:46
  TRACK 77 AUDIO
    TITLE "0:"
    INDEX 01 02:54:47
  TRACK 78 AUDIO
    TITLE "7:cjc128_3723"
    INDEX 01 02:55:25
  TRACK 79 AUDIO
    TITLE "0:"
    INDEX 01 03:00:04
  TRACK 80 AUDIO
    TITLE "8:cjc128_3724"
    INDEX 01 03:05:11
  TRACK 81 AUDIO
    TITLE "0:"
    INDEX 01 03:07:08
  TRACK 82 AUDIO
    TITLE "7:cjc128_3725"
    INDEX 01 03:08:02
  TRACK 83 AUDIO
    TITLE "0:"
    INDEX 01 03:11:43
  TRACK 84 AUDIO
    TITLE "8:cjc128_3726"
    INDEX 01 03:16:03
  TRACK 85 AUDIO
    TITLE "0:"
    INDEX 01 03:18:02
  TRACK 86 AUDIO
    TITLE "7:cjc128_3727"
    INDEX 01 03:18:55
  TRACK 87 AUDIO
    TITLE "0:"
    INDEX 01 03:21:53
  TRACK 88 AUDIO
    TITLE "8:cjc128_3728"
    INDEX 01 03:25:10
  TRACK 89 AUDIO
    TITLE "0:"
    INDEX 01 03:27:01
  TRACK 90 AUDIO
    TITLE "7:cjc128_3729"
    INDEX 01 03:27:52
  TRACK 91 AUDIO
    TITLE "0:"
    INDEX 01 03:31:26
